<svg xmlns="http://www.w3.org/2000/svg" viewBox="0 0 100 100" width="100" height="100">
  <rect x="4" y="4" width="92" height="92" rx="26" fill="#231f20"/>
  <svg x="15" y="15" width="70" height="70" viewBox="140.6 28.1 42.4 18.9" preserveAspectRatio="xMidYMid meet">
    <g fill="#fffff0">
      <path d="M144.71,44.62c1.73-.58,2.02-1.83,1.92-3.46v-7.12c0-1.15,0-2.4-.96-3.17-.67-.48-2.21-1.06-2.79-.19-.19.29-.1,1.35-.19,2.02v10.29c0,1.54.38,1.92,1.83,1.63h.19ZM141.15,28.27c.96-.19,2.31-.1,3.46,0,1.73.1,3.37,1.25,3.85,2.88.48,1.35.29,2.5.29,3.94v4.9c0,1.35,0,2.79-.29,3.75-.58,1.73-2.02,2.88-3.94,3.08h-2.12c-1.15,0-1.92,0-1.83-1.15v-16.63c0-.38,0-.77.48-.87h0l.1.1Z"/>
      <path d="M152.88,36.63c.48-1.25,2.12-1.73,3.17-.87,1.54,1.25.77,4.04-1.35,4.04-1.54,0-2.31-1.73-1.73-3.08h0l-.1-.1Z"/>
      <path d="M161.35,28.17c.48-.19,1.15,0,1.44.29.1.19.1.58.1.87v16.73c0,.96-1.73,1.15-2.02.29v-16.54c0-.96-.1-1.44.58-1.73h0l-.1.1Z"/>
      <path d="M167.02,36.63c.48-1.25,2.12-1.73,3.17-.87,1.54,1.25.77,4.04-1.35,4.04-1.54,0-2.31-1.73-1.73-3.08h0l-.1-.1Z"/>
      <path d="M176.44,28.46c.58.38.96,1.15,1.25,1.83.38.96.67,2.02.96,2.5,0,0,.1.19.19.29.48.19.87-1.44,1.06-2.02.19-.58.48-1.25.77-1.83.67-1.06,2.31-1.44,2.31-.1,0,.87-.48,1.63-.77,2.5-.67,2.02-1.54,4.04-2.02,6.06-.19,2.31,0,5,0,7.31,0,.67,0,1.63-.77,1.92-.77.38-1.44-.29-1.54-1.15-.19-2.69.1-5.77-.19-8.27-.58-2.31-1.83-5.29-2.6-7.6,0-.29-.19-.67-.19-1.06,0-.67.77-.87,1.54-.38h0Z"/>
    </g>
  </svg>
</svg>
