<?xml version="1.0" encoding="UTF-8"?>
<svg id="Layer_1" xmlns="http://www.w3.org/2000/svg" version="1.1" viewBox="0 0 213.4 78">
  <!-- Generator: Adobe Illustrator 29.7.1, SVG Export Plug-In . SVG Version: 2.1.1 Build 8)  -->
  <defs>
    <style>
      .st0 {
        fill: #231f20;
      }

      .st1 {
        fill: ivory;
      }
    </style>
  </defs>
  <path d="M58.3-.7h94.9c17.1,0,27.4,0,34.3,2.4,10.9,4,19.5,12.6,23.5,23.5,1.6,4.3,2.4,8.9,2.4,13.5s-.8,9.1-2.4,13.5c-4,10.9-12.6,19.5-23.5,23.5-6.9,2.4-17.1,2.4-34.3,2.4H58.3c-17.1,0-27.4,0-34.3-2.4-10.9-4-19.5-12.6-23.5-23.5-1.6-4.3-2.4-8.9-2.4-13.5s.8-9.1,2.4-13.5C4.5,14.3,13.2,5.7,24.1,1.7,30.9-.7,41.2-.7,58.3-.7Z"/>
  <path class="st1" d="M54.5,4.9h25.8c14.7,0,23.5,0,29.4,2,9.4,3.4,16.8,10.8,20.2,20.2,1.3,3.7,2,7.6,2,11.6s-.7,7.8-2,11.6c-3.4,9.4-10.8,16.8-20.2,20.2-5.9,2-14.7,2-29.4,2h-25.8c-14.7,0-23.5,0-29.4-2-9.4-3.4-16.8-10.8-20.2-20.2-1.3-3.7-2-7.6-2-11.6s.7-7.8,2-11.6c3.4-9.4,10.8-16.8,20.2-20.2,5.9-2,14.7-2,29.4-2Z"/>
  <path class="st1" d="M149.9,46.2c1.9-.6,2.1-1.9,2-3.6v-7.5c0-1.2,0-2.5-1-3.3-.7-.5-2.3-1.1-2.9-.2-.2.3-.1,1.4-.2,2.1v10.8c0,1.6.4,2,2,1.7h0ZM146.1,29c1-.2,2.5-.1,3.6,0,1.9.1,3.5,1.4,4.1,3.1.5,1.4.3,2.7.3,4.1v5.2c0,1.4,0,2.9-.3,3.9-.6,1.8-2.1,3.1-4.1,3.2-.7,0-1.5,0-2.2,0-1.2,0-2,0-2-1.2v-17.4c0-.4,0-.8.5-.9h0Z"/>
  <path class="st1" d="M158.4,37.8c.5-1.3,2.2-1.9,3.3-.9,1.6,1.3.8,4.3-1.4,4.2-1.6,0-2.5-1.9-1.9-3.2h0Z"/>
  <path class="st1" d="M173.3,37.8c.5-1.3,2.2-1.9,3.3-.9,1.6,1.3.8,4.3-1.4,4.2-1.6,0-2.5-1.9-1.9-3.2h0Z"/>
  <path class="st1" d="M167.3,28.9c.5-.2,1.2,0,1.5.3.1.2.1.6.1.9v17.6c0,1-1.8,1.2-2.1.3,0-.1,0-.3,0-.5v-16.8c0-1-.1-1.5.6-1.8h0Z"/>
  <path class="st1" d="M183.2,29.2c.7.4,1,1.2,1.3,1.9.4,1,.7,2.1,1,2.6,0,0,.1.2.2.3.5.2.9-1.5,1.1-2.1.2-.7.5-1.4.8-2,.7-1.1,2.4-1.5,2.4-.1,0,.9-.5,1.7-.8,2.7-.7,2.1-1.6,4.3-2.1,6.3-.2,2.4,0,5.2,0,7.7,0,.7,0,1.7-.8,2-.8.4-1.5-.3-1.6-1.2-.2-2.8.1-6.1-.2-8.7-.7-2.5-1.9-5.6-2.7-8,0-.3-.2-.7-.2-1.1,0-.7.8-.9,1.6-.4h0Z"/>
  <path class="st0" d="M39.6,26.7c3.4-.8,2.8,2,1.7,4.1-1,2.2-2.2,5.2-3.2,7.5-.6,1.3-1.1,2.5-1.7,4-1.1,2.5-1.8,5-4.3,5.1-4.3.1-5-6.4-6.9-9.9-1.1-2.7-2.4-5.5-3.4-8.1-.2-.6-.4-1.4-.1-2,.4-1,2.2-1,3.3-.2,2.7,2.6,3.6,7.1,5.3,10.3.5,1.2,1.5,3.6,2.5,1.7,1.2-2.2,2.8-6.5,4.1-9.4.6-1.2,1.3-2.4,2.6-3h.2c0,0,0,0,0,0Z"/>
  <path class="st0" d="M45.5,47.1c-.2,0-.3-.2-.4-.4-.1-2.7,0-7.4,0-10.7v-8.7c0-.8,1-.7,1.7-.8,1.1,0,2.6-.2,2.4,1.4v18.4c.2,1.5-2.7,1-3.5.9h-.1Z"/>
  <path class="st0" d="M69.4,42.1c1.2-1.8-.9-3.4-2.7-3.2-2.8,0-5.5,0-8.3,0-1.1,0-1.2,1.3-1.2,2.1s0,1.6.7,1.9c1.9.2,5.5,0,7.6,0,1.5,0,2.9,0,3.7-.8h.1ZM69.4,33.7c1-1.5-.6-3.4-2.3-3.2-2.4,0-6,0-8.6,0-1.9-.1-1.5,3.2-1,3.9.9.7,2.1.2,3.8.3,2.4-.3,6.3.7,8-.8h.1ZM73.8,32.8c-.1,1.3-1.1,2.7-1,4,0,2.1,1.1,4.2.5,6.2-2,5.3-8.9,4-13.4,4.2-1.5,0-3.3,0-4.7-.2-1.8-.2-2.2-1.8-2.2-3.4v-14.1c0-1.3.5-2.4,1.8-2.8,1.7-.5,3.6-.3,5.3-.3,5.2,0,13.1-.8,13.6,6.2v.2h0Z"/>
  <path class="st0" d="M89.7,32.3c-1.8,1.3-5.1-.8-7.1-.2-1.6.5-1.3,2.4-.1,3.2,1.3,1.2,4.3,1.2,5.9,2.3,1.6.9,2,3.4-.4,3.6-.7,0-1.7-.1-2.7-.3-2.9-.9-5.5.9-2.7,3.3,1.6,1.3,5.5,1.2,6.8,2.6,1.6,1.5,1.4,5.1-1.7,4.3-2.2-.5-6.6-1.4-8.9-2-1-.3-1.5-.6-1.6-1.6-.2-4.2,0-15,0-19.2,0-1.8.7-1.9,2.3-1.6,1.9.4,5.5,1.2,7.8,1.7,1.8.2,4.1,2,2.7,3.8h0Z"/>
  <path class="st0" d="M107.2,34.9c4.7.4,7.7,6.2,4.2,9.8-2.4,2.9-7.6,2.4-11.4,2.4-3.1,0-5.5-.8-7-3.1-.4-.6-.6-1.4-.3-2,1.5-1.8,4.4.6,6.6.7,2.1.2,9,1,8.7-2.1-.1-.8-1.3-1.5-3.1-1.7-4.8-.2-11.9.5-12.8-5.6-.6-4.2,3.5-7,7.4-6.9,4.3,0,12.1-.9,12.9,4.6-.8,2.3-3.8.3-5.4,0-2.1-.6-8.7-1.2-9.9.9-1,4,7.7,2.3,9.9,3h.2Z"/>
</svg>