<?xml version="1.0" encoding="UTF-8" standalone="no"?>
<!DOCTYPE svg PUBLIC "-//W3C//DTD SVG 1.1//EN" "http://www.w3.org/Graphics/SVG/1.1/DTD/svg11.dtd">
<svg width="100%" height="100%" viewBox="0 0 668 164" version="1.1" xmlns="http://www.w3.org/2000/svg" xmlns:xlink="http://www.w3.org/1999/xlink" xml:space="preserve" xmlns:serif="http://www.serif.com/" style="fill-rule:evenodd;clip-rule:evenodd;stroke-linejoin:round;stroke-miterlimit:2;">
    <g transform="matrix(1,0,0,1,-20.4395,15.2587)">
        <g transform="matrix(1,0,0,1,-605.562,-473.178)">
            <rect x="634.665" y="462.235" width="653.423" height="155.324" style="fill:white;"/>
        </g>
        <g transform="matrix(1,0,0,1,-605.562,-473.383)">
            <path d="M627,621.125L1293,621.125L1293,458.875L627,458.875L627,621.125ZM634.665,466.541L1285.34,466.541L1285.34,613.459L634.665,613.459L634.665,607.71L1140.97,607.71L1140.97,610.904L1282.78,610.904L1282.78,469.096L1140.97,469.096L1140.97,501.673L634.665,501.673L634.665,466.541ZM634.665,504.229L1140.97,504.229L1140.97,529.78L634.665,529.78L634.665,504.229ZM634.665,532.335L1140.97,532.335L1140.97,551.498L634.665,551.498L634.665,532.335ZM634.665,554.053L1140.97,554.053L1140.97,570.661L634.665,570.661L634.665,554.053ZM634.665,573.217L1140.97,573.217L1140.97,585.992L634.665,585.992L634.665,573.217ZM634.665,588.547L1140.97,588.547L1140.97,596.213L634.665,596.213L634.665,588.547ZM634.665,598.767L1140.97,598.767L1140.97,605.155L634.665,605.155L634.665,598.767Z" style="fill-rule:nonzero;"/>
        </g>
        <g transform="matrix(1,0,0,1,-605.562,-486.898)">
            <path d="M742.795,494.693C760.431,490.175 757.493,504.834 751.768,516.087C746.721,527.902 740.234,543.103 735.161,555.115C732.284,561.895 729.521,568.373 726.349,575.843C720.43,588.866 717.138,601.923 703.606,602.681C681.007,603.339 677.439,569.109 667.126,550.585C661.36,536.714 654.392,521.427 649.391,508.403C648.241,505.174 647.298,500.88 648.641,498.057C650.765,492.678 660.363,492.776 665.878,496.94C679.891,510.425 684.632,534.401 693.52,551.22C696.187,557.291 701.617,570.273 706.636,560.105C713.095,548.389 721.176,526.115 728.322,510.698C731.34,504.41 735.077,497.897 741.698,495.116L742.795,494.693Z" style="fill-rule:nonzero;"/>
        </g>
        <g transform="matrix(1,0,0,1,-605.562,-483.519)">
            <path d="M773.91,598.201C772.817,597.794 772.183,597.154 771.902,596.059C771.245,582.02 771.847,557.503 771.647,539.753C771.732,519.705 771.468,500.65 771.786,494.011C772.375,489.77 776.923,490.268 780.84,489.957C786.504,490.168 794.325,488.746 793.239,497.07C793.225,515.817 793.282,577.567 793.216,593.503C794.075,601.39 778.728,598.807 774.526,598.398L773.91,598.201Z" style="fill-rule:nonzero;"/>
        </g>
        <g transform="matrix(1,0,0,1,-605.562,-483.333)">
            <path d="M898.969,571.784C904.989,562.177 894.022,553.825 884.573,555.148C869.624,555.267 855.612,554.823 841.054,555.315C835.159,555.612 834.825,561.889 834.983,566.66C835.16,571.022 835.077,574.921 838.851,576.317C848.681,577.384 867.87,576.455 878.968,576.737C887.041,576.746 894.422,577.049 898.318,572.598L898.969,571.784ZM898.986,528.146C904.425,520.185 895.717,510.639 887.105,511.288C874.668,511.174 855.838,510.973 842.155,511.31C832.269,510.555 834.281,528.066 836.843,531.497C841.557,534.914 847.801,532.582 856.645,533.263C869.199,531.906 889.743,536.839 898.337,528.969L898.986,528.146ZM922.05,523.319C921.356,530.142 916.406,537.137 916.636,544.146C916.998,555.184 922.554,566.257 919.434,576.749C908.802,604.437 873.042,597.854 849.261,598.78C841.26,598.668 832.223,599.186 824.526,597.816C814.918,596.68 812.905,588.548 813.133,580.079C813.052,568.424 813.084,555.708 813.052,543.831C813.093,529.607 812.93,516.063 813.169,505.988C813.244,499.417 815.931,493.318 822.683,491.22C831.487,488.56 841.452,489.871 850.639,489.604C877.795,489.532 919.352,485.513 921.968,522.099L922.05,523.319Z" style="fill-rule:nonzero;"/>
        </g>
        <g transform="matrix(1,0,0,1,-605.562,-461.136)">
            <path d="M1005.54,498.421C996.086,505.099 978.662,494.105 968.156,497.564C959.49,499.99 961.498,510.251 967.535,514.472C974.389,520.828 990.262,520.808 998.331,526.408C1006.67,531.008 1009.06,544.404 996.33,545.262C992.483,545.614 987.435,544.574 982.465,543.539C967.171,538.676 953.868,548.091 968.158,560.585C976.577,567.322 996.66,566.577 1003.56,573.934C1011.76,581.804 1011.01,600.61 994.713,596.36C982.907,593.993 960.144,589.141 948.276,586.029C942.986,584.352 940.452,582.875 939.655,577.752C938.642,555.785 939.485,499.252 939.309,477.146C938.959,467.75 943.286,467.143 951.392,468.913C961.288,470.915 980.01,475.075 992.121,477.826C1001.42,478.913 1013.42,488.639 1006.07,497.926L1005.54,498.421Z" style="fill-rule:nonzero;"/>
        </g>
        <g transform="matrix(1,0,0,1,-605.562,-486.712)">
            <path d="M1097.51,537.941C1121.87,540.087 1137.98,570.612 1119.64,589.371C1106.9,604.408 1079.78,602.051 1059.89,601.819C1043.5,601.423 1031.4,597.544 1023.12,585.767C1021.02,582.748 1019.92,578.643 1021.65,575.6C1029.59,566.015 1044.92,578.495 1056.18,579.099C1067.09,580.189 1103.22,584.595 1101.69,567.881C1100.91,563.415 1094.84,559.978 1085.64,559.107C1060.69,557.989 1023.31,561.812 1018.48,529.511C1015.37,507.458 1037.14,492.913 1057.12,493.465C1079.95,493.121 1120.36,488.921 1124.71,517.395C1120.66,529.537 1104.79,519.127 1096.37,517.278C1085.04,513.996 1050.57,511.143 1044.33,522.047C1038.9,543.111 1084.65,534.243 1096.28,537.747L1097.51,537.941Z" style="fill-rule:nonzero;"/>
        </g>
        <g transform="matrix(1,0,0,1,-605.562,-525.706)">
            <path d="M1179.3,592.323C1179.3,592.099 1179.29,591.883 1179.29,591.658C1179.29,575.718 1180.97,563.615 1184.33,555.35C1187.02,548.709 1190.6,545.388 1195.06,545.388C1199.81,545.388 1203.54,548.733 1206.23,555.424C1209.49,563.603 1211.17,575.911 1211.26,592.323L1219.67,592.323C1219.68,592.125 1219.68,591.931 1219.68,591.732C1219.68,576.973 1217.31,564.661 1212.57,554.796C1207.83,544.933 1202.23,540 1195.76,540C1189.24,540 1183.64,544.355 1178.96,553.062C1173.57,563.098 1170.88,576.063 1170.88,591.954C1170.88,592.078 1170.88,592.199 1170.88,592.323L1179.3,592.323Z" style="fill:rgb(255,220,0);fill-rule:nonzero;"/>
        </g>
        <g transform="matrix(1,0,0,1,-605.562,-418.506)">
            <path d="M1211.26,487.678C1211.18,502.875 1209.67,514.062 1206.69,521.21C1203.64,528.541 1199.78,532.206 1195.1,532.206C1190.71,532.206 1187.18,528.86 1184.51,522.169C1181.27,513.952 1179.54,502.453 1179.32,487.678L1170.91,487.678C1171.18,501.896 1173.51,513.591 1177.88,522.76C1182.55,532.551 1188.31,537.445 1195.17,537.445C1201.96,537.445 1207.74,532.427 1212.52,522.391C1216.96,513.055 1219.33,501.483 1219.64,487.678L1211.26,487.678Z" style="fill:rgb(238,0,0);fill-rule:nonzero;"/>
        </g>
        <g transform="matrix(1,0,0,1,-605.562,-525.706)">
            <path d="M1225.26,587.156C1226.18,588.621 1227.43,590.346 1229.01,592.322L1244.97,592.322C1243.22,590.112 1240.91,587.457 1238.03,584.353C1232.32,578.203 1228.7,573.283 1227.18,569.593C1226.13,567.084 1225.61,564.305 1225.61,561.254C1225.61,557.269 1226.44,553.715 1228.1,550.59C1229.77,547.466 1231.88,545.904 1234.42,545.904C1236.68,545.904 1238.86,547.06 1240.97,549.372C1243.07,551.685 1244.7,554.809 1245.84,558.745C1246.97,562.681 1247.76,567.969 1248.2,574.611L1249.57,574.611L1249.57,540L1248.2,540C1247.96,542.313 1247.64,543.85 1247.23,544.612C1246.83,545.376 1246.31,545.756 1245.67,545.756C1245.11,545.756 1244.14,545.141 1242.77,543.911C1239.8,541.304 1237,540 1234.35,540C1230.11,540 1226.62,542.596 1223.88,547.785C1221.13,552.977 1219.76,559.163 1219.76,566.346C1219.76,570.478 1220.23,574.268 1221.16,577.71C1222.09,581.155 1223.46,584.304 1225.26,587.156" style="fill:rgb(238,0,0);fill-rule:nonzero;"/>
        </g>
        <g transform="matrix(1,0,0,1,-605.562,-418.506)">
            <path d="M1247.56,488.702C1247.36,488.378 1247.13,488.035 1246.88,487.678L1231.1,487.678C1232.09,488.857 1233.17,490.104 1234.35,491.433C1238.61,496.229 1241.22,499.366 1242.18,500.842C1243.6,503.007 1244.65,505.343 1245.32,507.853C1246,510.362 1246.33,512.846 1246.33,515.305C1246.33,519.734 1245.44,523.572 1243.67,526.818C1241.89,530.065 1239.47,531.689 1236.41,531.689C1233.76,531.689 1231.33,530.509 1229.11,528.147C1226.9,525.785 1225.25,522.822 1224.17,519.254C1223.09,515.688 1222.24,510.313 1221.6,503.129L1220.24,503.129L1220.24,537.445L1221.6,537.445C1221.77,535.133 1222.03,533.608 1222.39,532.87C1222.74,532.132 1223.23,531.762 1223.84,531.762C1224.48,531.762 1225.99,532.537 1228.38,534.088C1230.77,535.638 1232.34,536.535 1233.1,536.781C1234.38,537.224 1235.73,537.445 1237.18,537.445C1241.79,537.445 1245.55,534.704 1248.48,529.217C1251.41,523.732 1252.87,517.2 1252.87,509.623C1252.87,505.639 1252.41,501.827 1251.5,498.185C1250.58,494.544 1249.27,491.384 1247.56,488.702" style="fill:rgb(0,157,211);fill-rule:nonzero;"/>
        </g>
    </g>
</svg>
