<?xml version="1.0" encoding="UTF-8"?>
<svg id="Layer_1" xmlns="http://www.w3.org/2000/svg" version="1.1" viewBox="0 0 213.4 78">
  <!-- Generator: Adobe Illustrator 29.7.1, SVG Export Plug-In . SVG Version: 2.1.1 Build 8)  -->
  <defs>
    <style>
      .st0 {
        fill: #231f20;
      }

      .st1 {
        fill: ivory;
      }
    </style>
  </defs>
  <path d="M59.6,0h94.1c17,0,27.2,0,34,2.4,10.8,3.9,19.4,12.5,23.3,23.3,1.6,4.3,2.4,8.8,2.4,13.3s-.8,9.1-2.4,13.3c-3.9,10.8-12.5,19.4-23.3,23.3-6.8,2.4-17,2.4-34,2.4H59.6c-17,0-27.2,0-34-2.4-10.8-3.9-19.4-12.5-23.3-23.3-1.6-4.3-2.4-8.8-2.4-13.3s.8-9.1,2.4-13.3C6.3,14.8,14.8,6.3,25.7,2.4,32.5,0,42.7,0,59.6,0Z"/>
  <path class="st1" d="M164.9,5.5c8,0,17.7.3,21.8,2,9.3,3.4,16.6,10.7,20,20,1.3,3.7,2,7.5,2,11.5s-.7,7.8-2,11.5c-3.4,9.3-10.7,16.6-20,20-4.1,1.7-13.8,2-21.8,2s-17.7-.3-21.8-2c-9.3-3.4-16.6-10.7-20-20-1.3-3.7-2-7.5-2-11.5s.7-7.8,2-11.5c3.4-9.3,10.7-16.6,20-20,4.1-1.7,13.8-2,21.8-2Z"/>
  <path class="st0" d="M150.4,46.4c1.8-.6,2.1-1.9,2-3.6v-7.4c0-1.2,0-2.5-1-3.3-.7-.5-2.3-1.1-2.9-.2-.2.3-.1,1.4-.2,2.1v10.7c0,1.6.4,2,1.9,1.7h0ZM146.7,29.4c1-.2,2.4-.1,3.6,0,1.8.1,3.5,1.3,4,3,.5,1.4.3,2.6.3,4.1v5.1c0,1.4,0,2.9-.3,3.9-.6,1.8-2.1,3-4.1,3.2-.7,0-1.5,0-2.2,0-1.2,0-2,0-1.9-1.2v-17.3c0-.4,0-.8.5-.9h0Z"/>
  <path class="st0" d="M158.9,38.1c.5-1.3,2.2-1.8,3.3-.9,1.6,1.3.8,4.2-1.4,4.2-1.6,0-2.4-1.8-1.8-3.2h0Z"/>
  <path class="st0" d="M173.6,38.1c.5-1.3,2.2-1.8,3.3-.9,1.6,1.3.8,4.2-1.4,4.2-1.6,0-2.4-1.8-1.8-3.2h0Z"/>
  <path class="st0" d="M167.7,29.3c.5-.2,1.2,0,1.5.3.1.2.1.6.1.9v17.4c0,1-1.8,1.2-2.1.3,0-.1,0-.3,0-.5v-16.7c0-1-.1-1.5.6-1.8h0Z"/>
  <path class="st0" d="M183.4,29.6c.6.4,1,1.2,1.3,1.9.4,1,.7,2.1,1,2.6,0,0,.1.2.2.3.5.2.9-1.5,1.1-2.1.2-.6.5-1.3.8-1.9.7-1.1,2.4-1.5,2.4-.1,0,.9-.5,1.7-.8,2.6-.7,2.1-1.6,4.2-2.1,6.3-.2,2.4,0,5.2,0,7.6,0,.7,0,1.7-.8,2-.8.4-1.5-.3-1.6-1.2-.2-2.8.1-6-.2-8.6-.6-2.4-1.9-5.5-2.7-7.9,0-.3-.2-.7-.2-1.1,0-.7.8-.9,1.6-.4h0Z"/>
  <path class="st1" d="M41,27.1c3.3-.8,2.8,1.9,1.7,4.1-1,2.2-2.2,5.1-3.1,7.4-.6,1.3-1.1,2.5-1.7,3.9-1.1,2.4-1.8,4.9-4.3,5.1-4.2.1-4.9-6.3-6.9-9.8-1.1-2.6-2.4-5.5-3.4-8-.2-.6-.4-1.4-.1-1.9.4-1,2.2-1,3.3-.2,2.6,2.5,3.6,7.1,5.2,10.3.5,1.2,1.5,3.6,2.5,1.7,1.2-2.2,2.8-6.4,4.1-9.3.6-1.2,1.3-2.4,2.5-3h.2c0,0,0,0,0,0Z"/>
  <path class="st1" d="M46.9,47.3c-.2,0-.3-.2-.4-.4-.1-2.6,0-7.3,0-10.6v-8.6c0-.8,1-.7,1.7-.8,1.1,0,2.5-.2,2.4,1.3v18.2c.2,1.5-2.7,1-3.5.9h-.1Z"/>
  <path class="st1" d="M70.6,42.4c1.2-1.8-.9-3.4-2.7-3.1-2.8,0-5.5,0-8.2,0-1.1,0-1.2,1.2-1.2,2.1s0,1.6.7,1.8c1.8.2,5.5,0,7.6,0,1.5,0,2.9,0,3.6-.8h.1ZM70.6,34.1c1-1.5-.6-3.3-2.3-3.2-2.4,0-5.9,0-8.5,0-1.8-.1-1.5,3.2-1,3.8.9.6,2.1.2,3.7.3,2.4-.3,6.2.7,7.9-.8h.1ZM74.9,33.2c-.1,1.3-1.1,2.6-1,3.9,0,2.1,1.1,4.2.5,6.1-2,5.2-8.8,4-13.3,4.2-1.5,0-3.2,0-4.7-.2-1.8-.2-2.2-1.8-2.2-3.4v-14c0-1.2.5-2.4,1.8-2.8,1.7-.5,3.6-.3,5.3-.3,5.1,0,13-.8,13.5,6.1v.2h0Z"/>
  <path class="st1" d="M90.7,32.7c-1.8,1.2-5.1-.8-7.1-.2-1.6.5-1.2,2.4-.1,3.2,1.3,1.2,4.3,1.2,5.8,2.3,1.6.9,2,3.4-.4,3.6-.7,0-1.7-.1-2.6-.3-2.9-.9-5.4.9-2.7,3.2,1.6,1.3,5.4,1.2,6.7,2.5,1.6,1.5,1.4,5-1.7,4.2-2.2-.5-6.5-1.4-8.8-1.9-1-.3-1.5-.6-1.6-1.6-.2-4.2,0-14.8,0-19,0-1.8.7-1.9,2.3-1.6,1.9.4,5.4,1.2,7.7,1.7,1.8.2,4,2,2.6,3.8h0Z"/>
  <path class="st1" d="M108.1,35.3c4.6.4,7.7,6.2,4.2,9.7-2.4,2.9-7.5,2.4-11.3,2.4-3.1,0-5.4-.8-6.9-3-.4-.6-.6-1.3-.3-1.9,1.5-1.8,4.4.6,6.5.6,2.1.2,8.9,1,8.6-2.1-.1-.8-1.3-1.5-3-1.7-4.7-.2-11.8.5-12.7-5.6-.6-4.2,3.5-6.9,7.3-6.8,4.3,0,12-.9,12.8,4.5-.8,2.3-3.8.3-5.4,0-2.1-.6-8.6-1.2-9.8.9-1,4,7.6,2.3,9.8,3h.2Z"/>
</svg>